<?xml version="1.0" encoding="UTF-8" standalone="no"?>
<svg
   xmlns="http://www.w3.org/2000/svg"
   width="1792"
   height="1792"
   viewBox="0 0 1792 1792"
   version="1.1">
  <path
     d="m 1458.5904,493.67797 q 22.0479,25.74576 37.7966,69.88135 15.7487,44.1356 15.7487,80.91526 V 1703.7288 q 0,36.7797 -22.0481,62.5254 Q 1468.0396,1792 1436.5424,1792 H 378.23729 q -31.49718,0 -53.54521,-25.7458 -22.04802,-25.7457 -22.04802,-62.5254 V 232.54237 q 0,-36.77966 22.04802,-62.52542 22.04803,-25.74576 53.54521,-25.74576 h 705.53681 q 31.4971,0 69.2937,18.38983 37.7966,18.38983 59.8447,44.13559 z M 1108.9717,269.32203 v 345.72882 h 296.0736 q -7.8744,-26.66526 -17.3236,-37.69916 L 1141.2563,289.55085 q -9.4491,-11.0339 -32.2846,-20.22882 z M 1411.3446,1674.3051 V 732.74576 h -327.5705 q -31.4973,0 -53.5454,-25.74576 -22.0479,-25.74576 -22.0479,-62.52542 V 261.9661 H 403.43502 v 1412.339 z"
     id="path2"
     style="fill:#333;stroke-width:0.1;stroke-miterlimit:4;stroke-dasharray:none" />
</svg>
